<svg width="1200" height="900" viewBox="0 0 1200 900" fill="none" xmlns="http://www.w3.org/2000/svg">
  <rect width="1200" height="900" fill="#171210"/>
  <circle cx="263" cy="257" r="173" fill="#C6A16A" fill-opacity="0.22"/>
  <circle cx="949" cy="214" r="142" fill="#9C6A49" fill-opacity="0.26"/>
  <circle cx="617" cy="549" r="288" fill="#2B201B"/>
  <path d="M392 541C453 436 563 364 685 350C806 336 930 380 1005 475C951 594 860 682 738 720C616 758 480 742 365 673C362 628 368 583 392 541Z" fill="#E6D6C5"/>
  <path d="M471 609C517 533 588 486 671 478C754 470 839 500 899 562C858 657 785 728 692 761C599 794 494 789 403 740C405 693 426 645 471 609Z" fill="#B68757" fill-opacity="0.9"/>
  <path d="M497 369C577 272 699 212 828 207C910 204 987 225 1054 266C1004 269 954 282 906 307C818 353 744 426 694 515C660 444 593 397 497 369Z" fill="#231916" fill-opacity="0.72"/>
</svg>
